<?xml version="1.0" encoding="utf-8"?>
<!-- Generator: Adobe Illustrator 24.2.3, SVG Export Plug-In . SVG Version: 6.00 Build 0)  -->
<svg version="1.1" id="Capa_1" xmlns="http://www.w3.org/2000/svg" xmlns:xlink="http://www.w3.org/1999/xlink" x="0px" y="0px"
	 viewBox="0 0 297 297" style="enable-background:new 0 0 297 297;" xml:space="preserve">
<style type="text/css">
	.st0{fill:#FF6000;}
	.st1{fill:#C63300;}
	.st2{fill:#FFFFFF;}
</style>
<g>
	<g>
		<path class="st0" d="M148.5,292c-1.7,0-3.4-0.6-4.7-1.8c-4.1-3.6-101.2-90.2-101.2-178.3c0-58.4,47.5-106,105.9-106
			c58.4,0,105.9,47.5,105.9,106c0,88.2-97.1,174.7-101.2,178.3C151.9,291.4,150.2,292,148.5,292z"/>
		<path class="st1" d="M148.5,8.9c56.7,0,102.9,46.2,102.9,103c0,19.6-5,40.8-14.9,63c-8,18.1-19.3,36.9-33.5,55.9
			c-24.9,33.4-50.8,56.2-51.9,57.2c-0.7,0.7-1.7,1-2.7,1c-1,0-2-0.4-2.7-1c-1.1-1-26.9-23.8-51.9-57.2c-14.2-19-25.5-37.8-33.5-55.9
			c-9.9-22.2-14.9-43.4-14.9-63C45.6,55.1,91.8,8.9,148.5,8.9 M148.5,2.9c-60.1,0-108.9,48.9-108.9,109
			c0,89.5,98.1,176.9,102.3,180.6c1.9,1.7,4.3,2.5,6.7,2.5s4.8-0.8,6.7-2.5c4.2-3.7,102.3-91.1,102.3-180.6
			C257.4,51.8,208.6,2.9,148.5,2.9L148.5,2.9z"/>
	</g>
	<g>
		<circle class="st2" cx="148.5" cy="112.1" r="87"/>
	</g>
	<g>
		<g>
			<path d="M75.5,153.2v-17.4l30.4-28.1c1.9-1.8,3.3-3.4,4.3-4.8c0.9-1.4,1.5-2.6,1.9-3.7c0.3-1.1,0.5-2.1,0.5-3.1
				c0-2.1-0.7-3.7-2-4.9c-1.4-1.2-3.4-1.7-6.1-1.7c-2.5,0-4.8,0.7-7.1,2c-2.2,1.3-4,3.3-5.3,5.8L70.6,86.8c3-5.8,7.6-10.4,13.7-14
				c6.1-3.6,13.6-5.4,22.7-5.4c6.6,0,12.5,1.1,17.6,3.2c5.1,2.2,9.1,5.2,12,9.1c2.9,3.9,4.3,8.6,4.3,13.9c0,2.7-0.3,5.4-1,8.2
				c-0.7,2.7-2.1,5.6-4.1,8.6c-2.1,3-5.2,6.3-9.2,10l-22.8,20.8l-4.4-9.8h43.6v22H75.5z"/>
			<path d="M185.8,155.2c-7.4,0-14-1.1-19.6-3.3c-5.6-2.2-10.1-5.3-13.3-9.4c-3.2-4-4.8-8.8-4.8-14.2c0-5.4,1.6-10.1,4.9-13.9
				c3.3-3.8,7.8-6.8,13.4-8.8c5.7-2,12.1-3,19.3-3c7.2,0,13.6,1,19.3,3c5.7,2,10.2,4.9,13.4,8.8c3.3,3.8,4.9,8.5,4.9,13.9
				c0,5.4-1.6,10.2-4.8,14.2c-3.2,4-7.6,7.2-13.3,9.4C199.8,154.1,193.3,155.2,185.8,155.2z M185.8,116.3c-6.6,0-12.5-0.9-17.7-2.8
				c-5.2-1.9-9.4-4.6-12.4-8.2c-3-3.6-4.6-7.9-4.6-12.9c0-5.1,1.5-9.5,4.4-13.3c3-3.7,7-6.6,12.2-8.7c5.2-2.1,11.2-3.1,18-3.1
				c6.8,0,12.8,1,18,3.1c5.2,2.1,9.3,5,12.2,8.7c3,3.7,4.4,8.1,4.4,13.3c0,5-1.5,9.3-4.6,12.9c-3,3.6-7.2,6.3-12.4,8.2
				C198.4,115.3,192.5,116.3,185.8,116.3z M185.8,136.1c2.7,0,4.9-0.8,6.7-2.3c1.7-1.6,2.6-3.7,2.6-6.4c0-2.7-0.9-4.9-2.6-6.4
				c-1.7-1.6-3.9-2.3-6.7-2.3c-2.7,0-4.9,0.8-6.7,2.3c-1.7,1.6-2.6,3.7-2.6,6.4c0,2.7,0.9,4.9,2.6,6.4
				C180.9,135.3,183.1,136.1,185.8,136.1z M185.8,100.8c1.9,0,3.5-0.6,4.8-1.9c1.3-1.3,1.9-3,1.9-5.3c0-2.3-0.6-4.1-1.9-5.3
				c-1.3-1.2-2.9-1.9-4.8-1.9c-1.9,0-3.5,0.6-4.8,1.9c-1.3,1.2-1.9,3-1.9,5.3c0,2.2,0.6,4,1.9,5.3
				C182.3,100.2,183.9,100.8,185.8,100.8z"/>
		</g>
	</g>
</g>
</svg>
