<?xml version="1.0" encoding="utf-8"?>
<!-- Generator: Adobe Illustrator 24.2.3, SVG Export Plug-In . SVG Version: 6.00 Build 0)  -->
<svg version="1.1" id="Capa_1" xmlns="http://www.w3.org/2000/svg" xmlns:xlink="http://www.w3.org/1999/xlink" x="0px" y="0px"
	 viewBox="0 0 297 297" style="enable-background:new 0 0 297 297;" xml:space="preserve">
<style type="text/css">
	.st0{fill:#FF6000;}
	.st1{fill:#C63300;}
	.st2{fill:#FFFFFF;}
</style>
<g>
	<g>
		<path class="st0" d="M148.5,292c-1.7,0-3.4-0.6-4.7-1.8c-4.1-3.6-101.2-90.2-101.2-178.3c0-58.4,47.5-106,105.9-106
			c58.4,0,105.9,47.5,105.9,106c0,88.2-97.1,174.7-101.2,178.3C151.9,291.4,150.2,292,148.5,292z"/>
		<path class="st1" d="M148.5,8.9c56.7,0,102.9,46.2,102.9,103c0,19.6-5,40.8-14.9,63c-8,18.1-19.3,36.9-33.5,55.9
			c-24.9,33.4-50.8,56.2-51.9,57.2c-0.7,0.7-1.7,1-2.7,1c-1,0-2-0.4-2.7-1c-1.1-1-26.9-23.8-51.9-57.2c-14.2-19-25.5-37.8-33.5-55.9
			c-9.9-22.2-14.9-43.4-14.9-63C45.6,55.1,91.8,8.9,148.5,8.9 M148.5,2.9c-60.1,0-108.9,48.9-108.9,109
			c0,89.5,98.1,176.9,102.3,180.6c1.9,1.7,4.3,2.5,6.7,2.5s4.8-0.8,6.7-2.5c4.2-3.7,102.3-91.1,102.3-180.6
			C257.4,51.8,208.6,2.9,148.5,2.9L148.5,2.9z"/>
	</g>
	<g>
		<circle class="st2" cx="148.5" cy="112.1" r="87"/>
	</g>
	<g>
		<g>
			<path d="M96.2,162.2V79.6l13.5,12.8H80.2V68.6h47.6v93.6H96.2z"/>
			<path d="M171.5,164.4c-6.4,0-12.9-0.7-19.5-2.1c-6.6-1.4-12.4-3.5-17.4-6.3l10.7-23.3c4,2.3,8.2,4,12.6,5.1
				c4.4,1.1,8.6,1.7,12.5,1.7c3.6,0,6.5-0.6,8.8-1.8c2.3-1.2,3.4-3,3.4-5.4c0-2-0.8-3.6-2.5-4.7c-1.7-1.1-4.5-1.7-8.6-1.7h-12.4
				v-19.4l24.2-24.6l2.8,10.6h-46.7V68.6h69.8V88L185,112.6l-15.1-8.6h8.3c11.8,0,20.7,2.6,26.9,7.9c6.2,5.3,9.2,12,9.2,20.3
				c0,5.4-1.5,10.5-4.5,15.4c-3,4.9-7.6,8.9-13.9,12C189.6,162.8,181.5,164.4,171.5,164.4z"/>
		</g>
	</g>
</g>
</svg>
