<?xml version="1.0" encoding="utf-8"?>
<!-- Generator: Adobe Illustrator 24.2.3, SVG Export Plug-In . SVG Version: 6.00 Build 0)  -->
<svg version="1.1" id="Capa_1" xmlns="http://www.w3.org/2000/svg" xmlns:xlink="http://www.w3.org/1999/xlink" x="0px" y="0px"
	 viewBox="0 0 297 297" style="enable-background:new 0 0 297 297;" xml:space="preserve">
<style type="text/css">
	.st0{fill:#FF6000;}
	.st1{fill:#C63300;}
	.st2{fill:#FFFFFF;}
</style>
<g>
	<g>
		<path class="st0" d="M148.5,292c-1.7,0-3.4-0.6-4.7-1.8c-4.1-3.6-101.2-90.2-101.2-178.3c0-58.4,47.5-106,105.9-106
			c58.4,0,105.9,47.5,105.9,106c0,88.2-97.1,174.7-101.2,178.3C151.9,291.4,150.2,292,148.5,292z"/>
		<path class="st1" d="M148.5,8.9c56.7,0,102.9,46.2,102.9,103c0,19.6-5,40.8-14.9,63c-8,18.1-19.3,36.9-33.5,55.9
			c-24.9,33.4-50.8,56.2-51.9,57.2c-0.7,0.7-1.7,1-2.7,1c-1,0-2-0.4-2.7-1c-1.1-1-26.9-23.8-51.9-57.2c-14.2-19-25.5-37.8-33.5-55.9
			c-9.9-22.2-14.9-43.4-14.9-63C45.6,55.1,91.8,8.9,148.5,8.9 M148.5,2.9c-60.1,0-108.9,48.9-108.9,109
			c0,89.5,98.1,176.9,102.3,180.6c1.9,1.7,4.3,2.5,6.7,2.5s4.8-0.8,6.7-2.5c4.2-3.7,102.3-91.1,102.3-180.6
			C257.4,51.8,208.6,2.9,148.5,2.9L148.5,2.9z"/>
	</g>
	<g>
		<circle class="st2" cx="148.5" cy="112.1" r="87"/>
	</g>
	<g>
		<g>
			<path d="M112.5,160.2v-19.4l33.8-31.3c2.1-2.1,3.7-3.8,4.7-5.3c1-1.5,1.7-2.9,2.1-4.1c0.4-1.2,0.5-2.3,0.5-3.4
				c0-2.3-0.8-4.1-2.3-5.4c-1.5-1.3-3.8-1.9-6.8-1.9c-2.8,0-5.4,0.7-7.9,2.2c-2.5,1.5-4.5,3.6-5.9,6.5L107,86.1
				c3.4-6.4,8.5-11.6,15.2-15.6c6.8-4,15.2-6,25.3-6c7.4,0,14,1.2,19.7,3.6c5.7,2.4,10.2,5.8,13.4,10.2c3.2,4.4,4.8,9.5,4.8,15.5
				c0,3-0.4,6.1-1.1,9.1c-0.8,3-2.3,6.2-4.6,9.6c-2.3,3.3-5.8,7.1-10.3,11.2l-25.4,23.1l-4.9-11h48.5v24.5H112.5z"/>
		</g>
	</g>
</g>
</svg>
