<?xml version="1.0" encoding="utf-8"?>
<!-- Generator: Adobe Illustrator 24.2.3, SVG Export Plug-In . SVG Version: 6.00 Build 0)  -->
<svg version="1.1" id="Capa_1" xmlns="http://www.w3.org/2000/svg" xmlns:xlink="http://www.w3.org/1999/xlink" x="0px" y="0px"
	 viewBox="0 0 297 297" style="enable-background:new 0 0 297 297;" xml:space="preserve">
<style type="text/css">
	.st0{fill:#FF6000;}
	.st1{fill:#C63300;}
	.st2{fill:#FFFFFF;}
</style>
<g>
	<g>
		<path class="st0" d="M148.5,292c-1.7,0-3.4-0.6-4.7-1.8c-4.1-3.6-101.2-90.2-101.2-178.3c0-58.4,47.5-106,105.9-106
			c58.4,0,105.9,47.5,105.9,106c0,88.2-97.1,174.7-101.2,178.3C151.9,291.4,150.2,292,148.5,292z"/>
		<path class="st1" d="M148.5,8.9c56.7,0,102.9,46.2,102.9,103c0,19.6-5,40.8-14.9,63c-8,18.1-19.3,36.9-33.5,55.9
			c-24.9,33.4-50.8,56.2-51.9,57.2c-0.7,0.7-1.7,1-2.7,1c-1,0-2-0.4-2.7-1c-1.1-1-26.9-23.8-51.9-57.2c-14.2-19-25.5-37.8-33.5-55.9
			c-9.9-22.2-14.9-43.4-14.9-63C45.6,55.1,91.8,8.9,148.5,8.9 M148.5,2.9c-60.1,0-108.9,48.9-108.9,109
			c0,89.5,98.1,176.9,102.3,180.6c1.9,1.7,4.3,2.5,6.7,2.5s4.8-0.8,6.7-2.5c4.2-3.7,102.3-91.1,102.3-180.6
			C257.4,51.8,208.6,2.9,148.5,2.9L148.5,2.9z"/>
	</g>
	<g>
		<circle class="st2" cx="148.5" cy="112.1" r="87"/>
	</g>
	<g>
		<g>
			<path d="M75.6,153.2V135l31.9-29.5c2-1.9,3.5-3.6,4.5-5c1-1.4,1.6-2.7,2-3.8c0.3-1.1,0.5-2.2,0.5-3.2c0-2.2-0.7-3.9-2.1-5.1
				c-1.4-1.2-3.6-1.8-6.4-1.8c-2.6,0-5.1,0.7-7.4,2.1c-2.4,1.4-4.2,3.4-5.5,6.1L70.4,83.4c3.2-6,8-11,14.4-14.7
				c6.4-3.8,14.3-5.7,23.8-5.7c7,0,13.1,1.1,18.5,3.4c5.4,2.3,9.6,5.5,12.6,9.6c3,4.1,4.5,9,4.5,14.6c0,2.9-0.4,5.7-1.1,8.6
				c-0.7,2.9-2.2,5.9-4.3,9c-2.2,3.1-5.4,6.7-9.7,10.5l-23.9,21.8l-4.7-10.3h45.7v23.1H75.6z"/>
			<path d="M184,155.3c-6,0-12.2-0.7-18.4-2c-6.2-1.3-11.7-3.3-16.4-5.9l10.1-21.9c3.8,2.2,7.7,3.8,11.8,4.9c4.1,1.1,8,1.6,11.7,1.6
				c3.4,0,6.1-0.6,8.3-1.8c2.2-1.2,3.3-2.9,3.3-5.2c0-1.3-0.4-2.4-1.1-3.3c-0.8-1-2.1-1.7-4-2.2s-4.6-0.8-8.3-0.8h-25.6L160,65h58.6
				v22.4h-48.1l15-12.7l-2.6,34.1l-15-12.7h20.5c8.7,0,15.7,1.3,21,3.8c5.2,2.5,9.1,5.9,11.5,10.1c2.4,4.2,3.6,9,3.6,14.2
				c0,5.2-1.4,10.2-4.2,14.9c-2.8,4.7-7.2,8.6-13.1,11.6C201.1,153.8,193.5,155.3,184,155.3z"/>
		</g>
	</g>
</g>
</svg>
