<?xml version="1.0" encoding="utf-8"?>
<!-- Generator: Adobe Illustrator 24.2.3, SVG Export Plug-In . SVG Version: 6.00 Build 0)  -->
<svg version="1.1" id="Capa_1" xmlns="http://www.w3.org/2000/svg" xmlns:xlink="http://www.w3.org/1999/xlink" x="0px" y="0px"
	 viewBox="0 0 297 297" style="enable-background:new 0 0 297 297;" xml:space="preserve">
<style type="text/css">
	.st0{fill:#FF6000;}
	.st1{fill:#C63300;}
	.st2{fill:#FFFFFF;}
</style>
<g>
	<g>
		<path class="st0" d="M148.5,292c-1.7,0-3.4-0.6-4.7-1.8c-4.1-3.6-101.2-90.2-101.2-178.3c0-58.4,47.5-106,105.9-106
			c58.4,0,105.9,47.5,105.9,106c0,88.2-97.1,174.7-101.2,178.3C151.9,291.4,150.2,292,148.5,292z"/>
		<path class="st1" d="M148.5,8.9c56.7,0,102.9,46.2,102.9,103c0,19.6-5,40.8-14.9,63c-8,18.1-19.3,36.9-33.5,55.9
			c-24.9,33.4-50.8,56.2-51.9,57.2c-0.7,0.7-1.7,1-2.7,1c-1,0-2-0.4-2.7-1c-1.1-1-26.9-23.8-51.9-57.2c-14.2-19-25.5-37.8-33.5-55.9
			c-9.9-22.2-14.9-43.4-14.9-63C45.6,55.1,91.8,8.9,148.5,8.9 M148.5,2.9c-60.1,0-108.9,48.9-108.9,109
			c0,89.5,98.1,176.9,102.3,180.6c1.9,1.7,4.3,2.5,6.7,2.5s4.8-0.8,6.7-2.5c4.2-3.7,102.3-91.1,102.3-180.6
			C257.4,51.8,208.6,2.9,148.5,2.9L148.5,2.9z"/>
	</g>
	<g>
		<circle class="st2" cx="148.5" cy="112.1" r="87"/>
	</g>
	<g>
		<g>
			<path d="M93.1,160.2V77.6l13.5,12.8H77V66.6h47.6v93.6H93.1z"/>
			<path d="M181.1,162.4c-8.9,0-16.7-1.7-23.5-5.1c-6.7-3.4-12-8.6-15.8-15.4c-3.8-6.8-5.7-15.3-5.7-25.5c0-11,2.2-20.3,6.6-28
				c4.4-7.7,10.5-13.6,18.3-17.7c7.8-4.1,16.8-6.2,27.1-6.2c5.5,0,10.9,0.6,16,1.9c5.1,1.3,9.5,3.1,13,5.4l-11.4,22.1
				c-2.8-2-5.5-3.3-8.4-3.9c-2.8-0.7-5.7-1-8.6-1c-6.3,0-11.4,1.9-15.2,5.7c-3.8,3.8-5.7,9.3-5.7,16.5c0,1.3,0,2.7,0,3.9
				c0,1.3,0,2.6,0,3.9l-7.2-5.2c1.8-3,3.9-5.6,6.3-7.7c2.4-2.1,5.3-3.7,8.6-4.8c3.3-1.1,7.1-1.7,11.5-1.7c5.7,0,11,1.2,15.8,3.7
				c4.9,2.5,8.8,5.9,11.8,10.4c3,4.5,4.5,9.8,4.5,15.9c0,6.7-1.7,12.5-5.1,17.4c-3.4,4.9-8,8.7-13.7,11.4
				C194.5,161,188.1,162.4,181.1,162.4z M178.9,140.6c1.9,0,3.5-0.4,5-1.1c1.5-0.8,2.6-1.8,3.4-3.3c0.8-1.4,1.2-3.1,1.2-5.1
				c0-2.9-0.9-5.3-2.7-7c-1.8-1.7-4.1-2.6-7-2.6c-1.9,0-3.5,0.4-4.9,1.2c-1.4,0.8-2.6,1.9-3.4,3.3c-0.8,1.4-1.3,3.1-1.3,5.1
				c0,2,0.4,3.7,1.3,5.1c0.8,1.4,2,2.5,3.4,3.3C175.4,140.2,177.1,140.6,178.9,140.6z"/>
		</g>
	</g>
</g>
</svg>
