<?xml version="1.0" encoding="utf-8"?>
<!-- Generator: Adobe Illustrator 24.2.3, SVG Export Plug-In . SVG Version: 6.00 Build 0)  -->
<svg version="1.1" id="Capa_1" xmlns="http://www.w3.org/2000/svg" xmlns:xlink="http://www.w3.org/1999/xlink" x="0px" y="0px"
	 viewBox="0 0 297 297" style="enable-background:new 0 0 297 297;" xml:space="preserve">
<style type="text/css">
	.st0{fill:#FF6000;}
	.st1{fill:#C63300;}
	.st2{fill:#FFFFFF;}
</style>
<g>
	<g>
		<path class="st0" d="M148.5,292c-1.7,0-3.4-0.6-4.7-1.8c-4.1-3.6-101.2-90.2-101.2-178.3c0-58.4,47.5-106,105.9-106
			c58.4,0,105.9,47.5,105.9,106c0,88.2-97.1,174.7-101.2,178.3C151.9,291.4,150.2,292,148.5,292z"/>
		<path class="st1" d="M148.5,8.9c56.7,0,102.9,46.2,102.9,103c0,19.6-5,40.8-14.9,63c-8,18.1-19.3,36.9-33.5,55.9
			c-24.9,33.4-50.8,56.2-51.9,57.2c-0.7,0.7-1.7,1-2.7,1c-1,0-2-0.4-2.7-1c-1.1-1-26.9-23.8-51.9-57.2c-14.2-19-25.5-37.8-33.5-55.9
			c-9.9-22.2-14.9-43.4-14.9-63C45.6,55.1,91.8,8.9,148.5,8.9 M148.5,2.9c-60.1,0-108.9,48.9-108.9,109
			c0,89.5,98.1,176.9,102.3,180.6c1.9,1.7,4.3,2.5,6.7,2.5s4.8-0.8,6.7-2.5c4.2-3.7,102.3-91.1,102.3-180.6
			C257.4,51.8,208.6,2.9,148.5,2.9L148.5,2.9z"/>
	</g>
	<g>
		<circle class="st2" cx="148.5" cy="112.1" r="87"/>
	</g>
	<g>
		<g>
			<path d="M72.9,153.2V135l31.9-29.5c2-1.9,3.5-3.6,4.5-5c1-1.4,1.6-2.7,2-3.8c0.3-1.1,0.5-2.2,0.5-3.2c0-2.2-0.7-3.9-2.1-5.1
				c-1.4-1.2-3.6-1.8-6.4-1.8c-2.6,0-5.1,0.7-7.4,2.1c-2.4,1.4-4.2,3.4-5.5,6.1L67.7,83.4c3.2-6,8-11,14.4-14.7
				c6.4-3.8,14.3-5.7,23.8-5.7c7,0,13.1,1.1,18.5,3.4c5.4,2.3,9.6,5.5,12.6,9.6c3,4.1,4.5,9,4.5,14.6c0,2.9-0.4,5.7-1.1,8.6
				c-0.7,2.9-2.2,5.9-4.3,9c-2.2,3.1-5.4,6.7-9.7,10.5l-23.9,21.8l-4.7-10.3h45.7v23.1H72.9z"/>
			<path d="M192,155.3c-8.4,0-15.8-1.6-22.1-4.9c-6.3-3.2-11.3-8.1-14.9-14.5c-3.6-6.4-5.4-14.4-5.4-24c0-10.3,2.1-19.1,6.2-26.4
				c4.1-7.3,9.8-12.8,17.2-16.7c7.3-3.9,15.9-5.8,25.5-5.8c5.2,0,10.2,0.6,15.1,1.8c4.8,1.2,8.9,2.9,12.3,5.1l-10.7,20.8
				c-2.6-1.8-5.2-3.1-7.9-3.7c-2.6-0.6-5.4-0.9-8.1-0.9c-6,0-10.7,1.8-14.3,5.4c-3.6,3.6-5.4,8.8-5.4,15.6c0,1.3,0,2.5,0,3.7
				c0,1.2,0,2.5,0,3.7l-6.8-4.9c1.7-2.9,3.7-5.3,5.9-7.2c2.3-2,5-3.5,8.1-4.5c3.1-1,6.7-1.6,10.8-1.6c5.4,0,10.4,1.2,14.9,3.5
				c4.6,2.3,8.3,5.6,11.1,9.8c2.8,4.2,4.2,9.2,4.2,15c0,6.3-1.6,11.8-4.8,16.4c-3.2,4.6-7.5,8.2-12.9,10.7
				C204.6,154,198.6,155.3,192,155.3z M190,134.7c1.8,0,3.3-0.4,4.7-1.1c1.4-0.7,2.5-1.7,3.2-3.1c0.8-1.3,1.1-2.9,1.1-4.8
				c0-2.8-0.8-5-2.5-6.6c-1.7-1.6-3.9-2.5-6.6-2.5c-1.8,0-3.3,0.4-4.7,1.1c-1.3,0.8-2.4,1.8-3.2,3.1c-0.8,1.3-1.2,2.9-1.2,4.8
				c0,1.8,0.4,3.4,1.2,4.8c0.8,1.3,1.9,2.4,3.2,3.1C186.6,134.4,188.2,134.7,190,134.7z"/>
		</g>
	</g>
</g>
</svg>
