<?xml version="1.0" encoding="utf-8"?>
<!-- Generator: Adobe Illustrator 24.2.3, SVG Export Plug-In . SVG Version: 6.00 Build 0)  -->
<svg version="1.1" id="Capa_1" xmlns="http://www.w3.org/2000/svg" xmlns:xlink="http://www.w3.org/1999/xlink" x="0px" y="0px"
	 viewBox="0 0 297 297" style="enable-background:new 0 0 297 297;" xml:space="preserve">
<style type="text/css">
	.st0{fill:#FF6000;}
	.st1{fill:#C63300;}
	.st2{fill:#FFFFFF;}
</style>
<g>
	<g>
		<path class="st0" d="M148.5,292c-1.7,0-3.4-0.6-4.7-1.8c-4.1-3.6-101.2-90.2-101.2-178.3c0-58.4,47.5-106,105.9-106
			c58.4,0,105.9,47.5,105.9,106c0,88.2-97.1,174.7-101.2,178.3C151.9,291.4,150.2,292,148.5,292z"/>
		<path class="st1" d="M148.5,8.9c56.7,0,102.9,46.2,102.9,103c0,19.6-5,40.8-14.9,63c-8,18.1-19.3,36.9-33.5,55.9
			c-24.9,33.4-50.8,56.2-51.9,57.2c-0.7,0.7-1.7,1-2.7,1c-1,0-2-0.4-2.7-1c-1.1-1-26.9-23.8-51.9-57.2c-14.2-19-25.5-37.8-33.5-55.9
			c-9.9-22.2-14.9-43.4-14.9-63C45.6,55.1,91.8,8.9,148.5,8.9 M148.5,2.9c-60.1,0-108.9,48.9-108.9,109
			c0,89.5,98.1,176.9,102.3,180.6c1.9,1.7,4.3,2.5,6.7,2.5s4.8-0.8,6.7-2.5c4.2-3.7,102.3-91.1,102.3-180.6
			C257.4,51.8,208.6,2.9,148.5,2.9L148.5,2.9z"/>
	</g>
	<g>
		<circle class="st2" cx="148.5" cy="112.1" r="87"/>
	</g>
	<g>
		<g>
			<path d="M107.4,155.2c-5.8,0-11.6-0.6-17.5-1.9c-5.9-1.3-11.1-3.2-15.6-5.6l9.6-20.9c3.6,2.1,7.4,3.6,11.3,4.6
				c4,1,7.7,1.5,11.2,1.5c3.2,0,5.8-0.5,7.9-1.6s3.1-2.7,3.1-4.9c0-1.8-0.8-3.3-2.3-4.3c-1.5-1-4.1-1.5-7.7-1.5H96.2v-17.4
				l21.7-22.1l2.5,9.5H78.6V69.2h62.6v17.4l-21.7,22.1l-13.6-7.7h7.4c10.6,0,18.6,2.4,24.1,7.1c5.5,4.7,8.3,10.8,8.3,18.2
				c0,4.8-1.3,9.4-4,13.8c-2.7,4.4-6.8,8-12.5,10.8C123.6,153.8,116.3,155.2,107.4,155.2z"/>
			<path d="M190.2,155.2c-7.4,0-14-1.7-19.7-5.2c-5.7-3.4-10.2-8.4-13.4-15c-3.2-6.6-4.9-14.5-4.9-23.8c0-9.3,1.6-17.2,4.9-23.8
				c3.2-6.6,7.7-11.6,13.4-15c5.7-3.4,12.3-5.2,19.7-5.2c7.4,0,14,1.7,19.7,5.2c5.7,3.4,10.2,8.4,13.4,15c3.2,6.6,4.9,14.5,4.9,23.8
				c0,9.3-1.6,17.2-4.9,23.8c-3.2,6.6-7.7,11.6-13.4,15C204.2,153.4,197.6,155.2,190.2,155.2z M190.2,132.5c1.8,0,3.5-0.6,4.9-1.9
				c1.4-1.3,2.6-3.5,3.4-6.6c0.8-3.1,1.3-7.4,1.3-12.7c0-5.4-0.4-9.7-1.3-12.8c-0.8-3.1-2-5.3-3.4-6.5c-1.4-1.3-3.1-1.9-4.9-1.9
				c-1.8,0-3.5,0.6-4.9,1.9c-1.4,1.3-2.6,3.5-3.4,6.5c-0.8,3.1-1.3,7.3-1.3,12.8c0,5.4,0.4,9.6,1.3,12.7c0.8,3.1,2,5.3,3.4,6.6
				C186.7,131.8,188.3,132.5,190.2,132.5z"/>
		</g>
	</g>
</g>
</svg>
