<?xml version="1.0" encoding="utf-8"?>
<!-- Generator: Adobe Illustrator 24.2.3, SVG Export Plug-In . SVG Version: 6.00 Build 0)  -->
<svg version="1.1" id="Capa_1" xmlns="http://www.w3.org/2000/svg" xmlns:xlink="http://www.w3.org/1999/xlink" x="0px" y="0px"
	 viewBox="0 0 297 297" style="enable-background:new 0 0 297 297;" xml:space="preserve">
<style type="text/css">
	.st0{fill:#FF6000;}
	.st1{fill:#C63300;}
	.st2{fill:#FFFFFF;}
</style>
<g>
	<g>
		<path class="st0" d="M148.5,292c-1.7,0-3.4-0.6-4.7-1.8c-4.1-3.6-101.2-90.2-101.2-178.3c0-58.4,47.5-106,105.9-106
			c58.4,0,105.9,47.5,105.9,106c0,88.2-97.1,174.7-101.2,178.3C151.9,291.4,150.2,292,148.5,292z"/>
		<path class="st1" d="M148.5,8.9c56.7,0,102.9,46.2,102.9,103c0,19.6-5,40.8-14.9,63c-8,18.1-19.3,36.9-33.5,55.9
			c-24.9,33.4-50.8,56.2-51.9,57.2c-0.7,0.7-1.7,1-2.7,1c-1,0-2-0.4-2.7-1c-1.1-1-26.9-23.8-51.9-57.2c-14.2-19-25.5-37.8-33.5-55.9
			c-9.9-22.2-14.9-43.4-14.9-63C45.6,55.1,91.8,8.9,148.5,8.9 M148.5,2.9c-60.1,0-108.9,48.9-108.9,109
			c0,89.5,98.1,176.9,102.3,180.6c1.9,1.7,4.3,2.5,6.7,2.5s4.8-0.8,6.7-2.5c4.2-3.7,102.3-91.1,102.3-180.6
			C257.4,51.8,208.6,2.9,148.5,2.9L148.5,2.9z"/>
	</g>
	<g>
		<circle class="st2" cx="148.5" cy="112.1" r="87"/>
	</g>
	<g>
		<g>
			<path d="M95,162.2V79.6l13.5,12.8H78.9V68.6h47.6v93.6H95z"/>
			<path d="M180.5,164.4c-8.3,0-15.6-1.9-22-5.8c-6.4-3.8-11.4-9.4-15-16.7c-3.6-7.3-5.4-16.1-5.4-26.5c0-10.3,1.8-19.2,5.4-26.5
				c3.6-7.3,8.6-12.9,15-16.7c6.4-3.8,13.7-5.8,22-5.8c8.3,0,15.6,1.9,22,5.8c6.4,3.8,11.4,9.4,15,16.7c3.6,7.3,5.4,16.1,5.4,26.5
				c0,10.3-1.8,19.2-5.4,26.5c-3.6,7.3-8.6,12.9-15,16.7C196.1,162.5,188.7,164.4,180.5,164.4z M180.5,139.1c2.1,0,3.9-0.7,5.5-2.1
				c1.6-1.4,2.9-3.9,3.8-7.4c0.9-3.5,1.4-8.2,1.4-14.2c0-6.1-0.5-10.8-1.4-14.2c-0.9-3.4-2.2-5.9-3.8-7.3c-1.6-1.4-3.4-2.1-5.5-2.1
				s-3.9,0.7-5.5,2.1c-1.6,1.4-2.9,3.9-3.8,7.3c-0.9,3.4-1.4,8.2-1.4,14.2c0,6,0.5,10.7,1.4,14.2c0.9,3.5,2.2,5.9,3.8,7.4
				C176.6,138.4,178.4,139.1,180.5,139.1z"/>
		</g>
	</g>
</g>
</svg>
