<?xml version="1.0" encoding="utf-8"?>
<!-- Generator: Adobe Illustrator 24.2.3, SVG Export Plug-In . SVG Version: 6.00 Build 0)  -->
<svg version="1.1" id="Capa_1" xmlns="http://www.w3.org/2000/svg" xmlns:xlink="http://www.w3.org/1999/xlink" x="0px" y="0px"
	 viewBox="0 0 297 297" style="enable-background:new 0 0 297 297;" xml:space="preserve">
<style type="text/css">
	.st0{fill:#FF6000;}
	.st1{fill:#C63300;}
	.st2{fill:#FFFFFF;}
</style>
<g>
	<g>
		<path class="st0" d="M148.5,292c-1.7,0-3.4-0.6-4.7-1.8c-4.1-3.6-101.2-90.2-101.2-178.3c0-58.4,47.5-106,105.9-106
			c58.4,0,105.9,47.5,105.9,106c0,88.2-97.1,174.7-101.2,178.3C151.9,291.4,150.2,292,148.5,292z"/>
		<path class="st1" d="M148.5,8.9c56.7,0,102.9,46.2,102.9,103c0,19.6-5,40.8-14.9,63c-8,18.1-19.3,36.9-33.5,55.9
			c-24.9,33.4-50.8,56.2-51.9,57.2c-0.7,0.7-1.7,1-2.7,1c-1,0-2-0.4-2.7-1c-1.1-1-26.9-23.8-51.9-57.2c-14.2-19-25.5-37.8-33.5-55.9
			c-9.9-22.2-14.9-43.4-14.9-63C45.6,55.1,91.8,8.9,148.5,8.9 M148.5,2.9c-60.1,0-108.9,48.9-108.9,109
			c0,89.5,98.1,176.9,102.3,180.6c1.9,1.7,4.3,2.5,6.7,2.5s4.8-0.8,6.7-2.5c4.2-3.7,102.3-91.1,102.3-180.6
			C257.4,51.8,208.6,2.9,148.5,2.9L148.5,2.9z"/>
	</g>
	<g>
		<circle class="st2" cx="148.5" cy="112.1" r="87"/>
	</g>
	<g>
		<g>
			<path d="M148.5,163.4c-8.3,0-15.6-1.2-21.9-3.7s-11.2-5.9-14.8-10.4c-3.6-4.5-5.3-9.8-5.3-15.8c0-6.1,1.8-11.2,5.5-15.5
				c3.7-4.3,8.6-7.5,15-9.8c6.3-2.2,13.5-3.3,21.5-3.3c8,0,15.2,1.1,21.5,3.3c6.3,2.2,11.3,5.5,15,9.8c3.7,4.3,5.5,9.5,5.5,15.5
				c0,6.1-1.8,11.3-5.3,15.8c-3.6,4.5-8.5,8-14.8,10.4C164.1,162.2,156.8,163.4,148.5,163.4z M148.5,120c-7.3,0-13.9-1-19.7-3.1
				c-5.8-2.1-10.5-5.1-13.8-9.1c-3.4-4-5.1-8.8-5.1-14.4c0-5.7,1.6-10.6,4.9-14.8c3.3-4.1,7.8-7.4,13.6-9.7
				c5.8-2.3,12.5-3.5,20.1-3.5c7.6,0,14.3,1.2,20.1,3.5c5.8,2.3,10.3,5.6,13.6,9.7c3.3,4.1,4.9,9.1,4.9,14.8
				c0,5.6-1.7,10.4-5.1,14.4c-3.4,4-8,7-13.8,9.1C162.5,119,155.9,120,148.5,120z M148.5,142.1c3,0,5.5-0.9,7.4-2.6
				c1.9-1.7,2.9-4.1,2.9-7.2c0-3-1-5.4-2.9-7.2c-1.9-1.7-4.4-2.6-7.4-2.6c-3,0-5.5,0.9-7.4,2.6c-1.9,1.7-2.9,4.1-2.9,7.2
				c0,3,1,5.4,2.9,7.2C143,141.2,145.5,142.1,148.5,142.1z M148.5,102.8c2.1,0,3.9-0.7,5.3-2.1c1.4-1.4,2.1-3.4,2.1-5.9
				c0-2.6-0.7-4.6-2.1-6c-1.4-1.4-3.2-2.1-5.3-2.1c-2.1,0-3.9,0.7-5.4,2.1c-1.4,1.4-2.1,3.4-2.1,6c0,2.5,0.7,4.5,2.1,5.9
				C144.6,102.1,146.4,102.8,148.5,102.8z"/>
		</g>
	</g>
</g>
</svg>
