<?xml version="1.0" encoding="utf-8"?>
<!-- Generator: Adobe Illustrator 24.2.3, SVG Export Plug-In . SVG Version: 6.00 Build 0)  -->
<svg version="1.1" id="Capa_1" xmlns="http://www.w3.org/2000/svg" xmlns:xlink="http://www.w3.org/1999/xlink" x="0px" y="0px"
	 viewBox="0 0 297 297" style="enable-background:new 0 0 297 297;" xml:space="preserve">
<style type="text/css">
	.st0{fill:#FF6000;}
	.st1{fill:#C63300;}
	.st2{fill:#FFFFFF;}
</style>
<g>
	<g>
		<path class="st0" d="M148.5,292c-1.7,0-3.4-0.6-4.7-1.8c-4.1-3.6-101.2-90.2-101.2-178.3c0-58.4,47.5-106,105.9-106
			c58.4,0,105.9,47.5,105.9,106c0,88.2-97.1,174.7-101.2,178.3C151.9,291.4,150.2,292,148.5,292z"/>
		<path class="st1" d="M148.5,8.9c56.7,0,102.9,46.2,102.9,103c0,19.6-5,40.8-14.9,63c-8,18.1-19.3,36.9-33.5,55.9
			c-24.9,33.4-50.8,56.2-51.9,57.2c-0.7,0.7-1.7,1-2.7,1c-1,0-2-0.4-2.7-1c-1.1-1-26.9-23.8-51.9-57.2c-14.2-19-25.5-37.8-33.5-55.9
			c-9.9-22.2-14.9-43.4-14.9-63C45.6,55.1,91.8,8.9,148.5,8.9 M148.5,2.9c-60.1,0-108.9,48.9-108.9,109
			c0,89.5,98.1,176.9,102.3,180.6c1.9,1.7,4.3,2.5,6.7,2.5s4.8-0.8,6.7-2.5c4.2-3.7,102.3-91.1,102.3-180.6
			C257.4,51.8,208.6,2.9,148.5,2.9L148.5,2.9z"/>
	</g>
	<g>
		<circle class="st2" cx="148.5" cy="112.1" r="87"/>
	</g>
	<g>
		<g>
			<path d="M144.7,163.4c-6.4,0-12.9-0.7-19.5-2.1c-6.6-1.4-12.4-3.5-17.4-6.3l10.7-23.3c4,2.3,8.2,4,12.6,5.1
				c4.4,1.1,8.5,1.7,12.4,1.7c3.6,0,6.5-0.6,8.8-1.9c2.3-1.2,3.5-3.1,3.5-5.5c0-1.3-0.4-2.5-1.2-3.5c-0.8-1-2.2-1.8-4.2-2.3
				c-2-0.5-4.9-0.8-8.8-0.8h-27.2l4.7-56.8h62.2v23.8h-51.1l15.9-13.5l-2.8,36.2l-15.9-13.5h21.8c9.3,0,16.7,1.3,22.3,4
				c5.6,2.7,9.6,6.3,12.2,10.8c2.5,4.5,3.8,9.5,3.8,15c0,5.5-1.5,10.8-4.5,15.8c-3,5-7.6,9.1-13.9,12.3
				C162.8,161.8,154.7,163.4,144.7,163.4z"/>
		</g>
	</g>
</g>
</svg>
