<?xml version="1.0" encoding="utf-8"?>
<!-- Generator: Adobe Illustrator 24.2.3, SVG Export Plug-In . SVG Version: 6.00 Build 0)  -->
<svg version="1.1" id="Capa_1" xmlns="http://www.w3.org/2000/svg" xmlns:xlink="http://www.w3.org/1999/xlink" x="0px" y="0px"
	 viewBox="0 0 297 297" style="enable-background:new 0 0 297 297;" xml:space="preserve">
<style type="text/css">
	.st0{fill:#FF6000;}
	.st1{fill:#C63300;}
	.st2{fill:#FFFFFF;}
</style>
<g>
	<g>
		<path class="st0" d="M148.5,292c-1.7,0-3.4-0.6-4.7-1.8c-4.1-3.6-101.2-90.2-101.2-178.3c0-58.4,47.5-106,105.9-106
			c58.4,0,105.9,47.5,105.9,106c0,88.2-97.1,174.7-101.2,178.3C151.9,291.4,150.2,292,148.5,292z"/>
		<path class="st1" d="M148.5,8.9c56.7,0,102.9,46.2,102.9,103c0,19.6-5,40.8-14.9,63c-8,18.1-19.3,36.9-33.5,55.9
			c-24.9,33.4-50.8,56.2-51.9,57.2c-0.7,0.7-1.7,1-2.7,1c-1,0-2-0.4-2.7-1c-1.1-1-26.9-23.8-51.9-57.2c-14.2-19-25.5-37.8-33.5-55.9
			c-9.9-22.2-14.9-43.4-14.9-63C45.6,55.1,91.8,8.9,148.5,8.9 M148.5,2.9c-60.1,0-108.9,48.9-108.9,109
			c0,89.5,98.1,176.9,102.3,180.6c1.9,1.7,4.3,2.5,6.7,2.5s4.8-0.8,6.7-2.5c4.2-3.7,102.3-91.1,102.3-180.6
			C257.4,51.8,208.6,2.9,148.5,2.9L148.5,2.9z"/>
	</g>
	<g>
		<circle class="st2" cx="148.5" cy="112.1" r="87"/>
	</g>
	<g>
		<g>
			<path d="M87.3,153.2v-18.6l32.4-30c2-2,3.6-3.7,4.5-5.1c1-1.5,1.6-2.8,2-3.9c0.3-1.2,0.5-2.2,0.5-3.3c0-2.2-0.7-3.9-2.2-5.2
				c-1.5-1.2-3.6-1.9-6.5-1.9c-2.6,0-5.2,0.7-7.6,2.1c-2.4,1.4-4.3,3.5-5.6,6.2L82,82.3c3.2-6.1,8.1-11.1,14.6-15
				c6.5-3.8,14.5-5.8,24.2-5.8c7.1,0,13.4,1.2,18.8,3.5c5.5,2.3,9.7,5.5,12.8,9.7c3.1,4.2,4.6,9.1,4.6,14.8c0,2.9-0.4,5.8-1.1,8.7
				c-0.7,2.9-2.2,6-4.4,9.2c-2.2,3.2-5.5,6.8-9.9,10.7l-24.3,22.1l-4.7-10.5h46.5v23.4H87.3z"/>
			<path d="M177.5,153.2V74.1l12.9,12.3h-28.3V63.6h45.6v89.6H177.5z"/>
		</g>
	</g>
</g>
</svg>
